<?xml version="1.0" encoding="UTF-8"?>
<svg xmlns="http://www.w3.org/2000/svg" viewBox="0 0 28 28">
  <path
    fill="currentColor"
    fill-rule="evenodd"
    d="
      M14 28
      C21.56 28 28 21.56 28 14
      28 6.44 21.56 0 14 0
      6.44 0 0 6.44 0 14
      0 21.56 6.44 28 14 28
      Z
      M9 9
      C8.21 9.81 8.21 11.11 8.21 14
      8.21 16.58 8.21 17.88 9 18.68
      9.8 19.48 11.1 19.48 14 19.48
      16.58 19.48 17.88 19.48 18.68 18.68
      19.48 17.88 19.48 16.58 19.48 14
      19.48 11.11 19.48 9.81 18.68 9
      17.88 8.21 16.58 8.21 14 8.21
      11.11 8.21 9.81 8.21 9 9
      Z
    "
  />
</svg>
