<?xml version="1.0" encoding="UTF-8" standalone="no"?>
<!-- Created with Inkscape (http://www.inkscape.org/) -->

<svg
   width="220mm"
   height="220mm"
   viewBox="0 0 220 220"
   version="1.1"
   id="svg1"
   inkscape:version="1.4.2 (ebf0e940d0, 2025-05-08)"
   sodipodi:docname="icon.svg"
   xmlns:inkscape="http://www.inkscape.org/namespaces/inkscape"
   xmlns:sodipodi="http://sodipodi.sourceforge.net/DTD/sodipodi-0.dtd"
   xmlns="http://www.w3.org/2000/svg"
   xmlns:svg="http://www.w3.org/2000/svg">
  <sodipodi:namedview
     id="namedview1"
     pagecolor="#ffffff"
     bordercolor="#000000"
     borderopacity="0.25"
     inkscape:showpageshadow="2"
     inkscape:pageopacity="0.0"
     inkscape:pagecheckerboard="0"
     inkscape:deskcolor="#d1d1d1"
     inkscape:document-units="mm"
     inkscape:zoom="0.65566779"
     inkscape:cx="202.84663"
     inkscape:cy="497.96559"
     inkscape:window-width="1652"
     inkscape:window-height="972"
     inkscape:window-x="0"
     inkscape:window-y="0"
     inkscape:window-maximized="1"
     inkscape:current-layer="layer1" />
  <defs
     id="defs1" />
  <g
     inkscape:label="Layer 1"
     inkscape:groupmode="layer"
     id="layer1"
     transform="translate(4.0353265,-59.722828)">
    <rect
       style="fill:#222222;fill-opacity:1;stroke:none;stroke-width:14.041;stroke-dasharray:none;stroke-opacity:1"
       id="rect11"
       width="220"
       height="220"
       x="-4.0353265"
       y="59.722828"
       ry="33.89674" />
    <g
       id="SVGRepo_bgCarrier"
       stroke-width="0"
       transform="matrix(9.9206465,0,0,9.9206465,28.854322,42.877228)"
       style="fill:none" />
    <g
       id="SVGRepo_tracerCarrier"
       stroke-linecap="round"
       stroke-linejoin="round"
       stroke="#cccccc"
       stroke-width="0.144"
       transform="matrix(9.9206465,0,0,9.9206465,28.854322,42.877228)"
       style="fill:none" />
    <g
       id="SVGRepo_iconCarrier"
       transform="matrix(8.0885101,0,0,8.0885101,11.46295,84.628777)"
       style="fill:none;stroke:#ffffff;stroke-opacity:1">
      <path
         d="M 13,1.4543105 H 8.2 c -1.1201,0 -1.68016,0 -2.10798,0.21799 -0.37633,0.19174 -0.68229,0.4977 -0.87403,0.87403 C 5,2.9741505 5,3.5342105 5,4.6543105 V 16.25431 c 0,1.1201 0,1.6802 0.21799,2.108 0.19174,0.3763 0.4977,0.6823 0.87403,0.874 0.42782,0.218 0.98788,0.218 2.10798,0.218 h 7.6 c 1.1201,0 1.6802,0 2.108,-0.218 0.3763,-0.1917 0.6823,-0.4977 0.874,-0.874 C 19,17.93451 19,17.37441 19,16.25431 V 7.4543105 m -6,-6 6,6 m -6,-6 v 4.4 c 0,0.56005 0,0.84008 0.109,1.05399 0.0959,0.18816 0.2488,0.34114 0.437,0.43702 0.2139,0.10899 0.4939,0.10899 1.054,0.10899 H 19"
         stroke="#000000"
         stroke-width="2"
         stroke-linecap="round"
         stroke-linejoin="round"
         id="path1"
         style="fill:none;stroke:#ffffff;stroke-width:1.41533;stroke-dasharray:none;stroke-opacity:1"
         sodipodi:nodetypes="csccssccssccsccccsccsc" />
      <path
         d="M 11.259484,11.707073 8.2347836,15.31177 c -0.2045782,0.243807 -0.1727809,0.602615 0.071026,0.807193 l 0.4641097,0.389434 c 0.2438073,0.204579 0.6025397,0.173466 0.8071181,-0.07034 l 3.0245776,-3.604551 c 0.71188,0.173908 1.503466,-0.05078 2.009766,-0.654163 0.421898,-0.502798 0.509408,-1.187911 0.389012,-1.763117 -0.01373,-0.06576 -0.06388,-0.117784 -0.128873,-0.134011 -0.06542,-0.01633 -0.134081,0.0059 -0.177324,0.05745 l -0.625006,0.744854 c -0.199678,0.237968 -0.547476,0.261092 -0.785735,0.06117 L 12.804015,10.74339 C 12.565757,10.543463 12.527136,10.196344 12.726937,9.9582302 L 13.35231,9.212939 C 13.39567,9.161258 13.40595,9.0900165 13.37855,9.0284382 13.35128,8.9672442 13.29137,8.9271694 13.224198,8.9247946 12.635679,8.9053996 11.976608,9.1109157 11.554466,9.6140055 11.048165,10.217391 10.954277,11.027515 11.259527,11.70708 Z"
         id="path2"
         style="fill:#ffffff;stroke-width:0.190579" />
    </g>
  </g>
</svg>
