<?xml version="1.0" encoding="UTF-8"?>
<svg
    viewBox="0 0 24 24"
    fill="currentColor"
    xmlns="http://www.w3.org/2000/svg">
    <path
        fill-rule="evenodd"
        clip-rule="evenodd"
        d="M14.2788 2.15224C13.9085 2 13.439 2 12.5 2C11.561 2 11.0915 2 10.7212 2.15224
           C10.2274 2.35523 9.83509 2.74458 9.63056 3.23463
           C9.53719 3.45834 9.50065 3.7185 9.48635 4.09799
           C9.46534 4.65568 9.17716 5.17189 8.69017 5.45093
           C8.20318 5.72996 7.60864 5.71954 7.11149 5.45876
           C6.77318 5.2813 6.52789 5.18262 6.28599 5.15102
           C5.75609 5.08178 5.22018 5.22429 4.79616 5.5472
           C4.47814 5.78938 4.24339 6.1929 3.7739 6.99993
           C3.30441 7.80697 3.06967 8.21048 3.01735 8.60491
           C2.94758 9.1308 3.09118 9.66266 3.41655 10.0835
           C3.56506 10.2756 3.77377 10.437 4.0977 10.639
           C4.57391 10.936 4.88032 11.4419 4.88029 12
           C4.88026 12.5581 4.57386 13.0639 4.0977 13.3608
           C3.77372 13.5629 3.56497 13.7244 3.41645 13.9165
           C3.09108 14.3373 2.94749 14.8691 3.01725 15.395
           C3.06957 15.7894 3.30432 16.193 3.7738 17
           C4.24329 17.807 4.47804 18.2106 4.79606 18.4527
           C5.22008 18.7756 5.75599 18.9181 6.28589 18.8489
           C6.52778 18.8173 6.77305 18.7186 7.11133 18.5412
           C7.60852 18.2804 8.2031 18.27 8.69012 18.549
           C9.17714 18.8281 9.46533 19.3443 9.48635 19.9021
           C9.50065 20.2815 9.53719 20.5417 9.63056 20.7654
           C9.83509 21.2554 10.2274 21.6448 10.7212 21.8478
           C11.0915 22 11.561 22 12.5 22
           C13.439 22 13.9085 22 14.2788 21.8478
           C14.7726 21.6448 15.1649 21.2554 15.3694 20.7654
           C15.4628 20.5417 15.4994 20.2815 15.5137 19.902
           C15.5347 19.3443 15.8228 18.8281 16.3098 18.549
           C16.7968 18.2699 17.3914 18.2804 17.8886 18.5412
           C18.2269 18.7186 18.4721 18.8172 18.714 18.8488
           C19.2439 18.9181 19.7798 18.7756 20.2038 18.4527
           C20.5219 18.2105 20.7566 17.807 21.2261 16.9999
           C21.6956 16.1929 21.9303 15.7894 21.9827 15.395
           C22.0524 14.8691 21.9088 14.3372 21.5835 13.9164
           C21.4349 13.7243 21.2262 13.5628 20.9022 13.3608
           C20.4261 13.0639 20.1197 12.558 20.1197 11.9999
           C20.1197 11.4418 20.4261 10.9361 20.9022 10.6392
           C21.2263 10.4371 21.435 10.2757 21.5836 10.0835
           C21.9089 9.66273 22.0525 9.13087 21.9828 8.60497
           C21.9304 8.21055 21.6957 7.80703 21.2262 7
           C20.7567 6.19297 20.522 5.78945 20.2039 5.54727
           C19.7799 5.22436 19.244 5.08185 18.7141 5.15109
           C18.4722 5.18269 18.2269 5.28136 17.8887 5.4588
           C17.3915 5.71959 16.7969 5.73002 16.3099 5.45096
           C15.8229 5.17191 15.5347 4.65566 15.5136 4.09794
           C15.4993 3.71848 15.4628 3.45833 15.3694 3.23463
           C15.1649 2.74458 14.7726 2.35523 14.2788 2.15224ZM12.5 15
           A3 3 0 1 1 12.5 9
           A3 3 0 0 1 12.5 15Z"/>
</svg>
